# xmcd
#
# Track frame offsets: 
#        150
#        16721
#        31836
#        46815
#        62768
#        79040
#        94076
#        107026
#        125461
#        143547
#
# Disc length: 2135 seconds
#
# Revision: 0
# Processed by: cddbd v1.5.2PL0 Copyright (c) Steve Scherf et al.
# Submitted via: ExactAudioCopy v1.3
#
DISCID=7008550a
DTITLE=Vince Gill - Country
DYEAR=2012
DGENRE=Country
TTITLE0=Oklahoma Borderline
TTITLE1=Victim Of Life's Circumstances
TTITLE2=Oh Carolina
TTITLE3=If It Weren't For Him (Vince Gill and Rosanne Cash)
TTITLE4=Cinderella
TTITLE5=Let's Do Something
TTITLE6=Everybody's Sweetheart
TTITLE7=The Radio
TTITLE8=I Never Knew Lonely
TTITLE9=Midnight Train
EXTD=
EXTT0=
EXTT1=
EXTT2=
EXTT3=
EXTT4=
EXTT5=
EXTT6=
EXTT7=
EXTT8=
EXTT9=
PLAYORDER=
